<svg xmlns="http://www.w3.org/2000/svg" xmlns:xlink="http://www.w3.org/1999/xlink" width="2000" zoomAndPan="magnify" viewBox="0 0 1500 374.999991" height="500" preserveAspectRatio="xMidYMid meet" version="1.0"><defs><g/><clipPath id="41d76dd7ce"><path d="M 73 0 L 681.75 0 L 681.75 375 L 73 375 Z M 73 0 " clip-rule="nonzero"/></clipPath></defs><path fill="#ffffff" d="M 440.550781 85.339844 L 427.441406 164.273438 C 431.839844 163.007812 436.285156 161.058594 440.632812 159.558594 C 452.230469 155.546875 467.15625 149.347656 479.183594 144.835938 C 487.695312 141.636719 496.523438 138.238281 504.9375 134.957031 C 508.402344 133.609375 529.308594 125.878906 530.640625 124.980469 C 529.375 122.03125 517.597656 110.355469 514.847656 108.324219 C 513.347656 107.226562 511.984375 105.925781 510.332031 104.808594 C 508.683594 103.695312 507.21875 102.628906 505.402344 101.394531 C 495.957031 94.933594 482.332031 89.402344 470.652344 87.039062 C 462.441406 85.371094 449.015625 83.921875 440.550781 85.339844 Z M 357.976562 141.953125 C 359.242188 143.550781 373.351562 155.011719 376.25 157.644531 C 383.597656 164.324219 394.707031 172.835938 402.304688 179.746094 C 406.484375 183.542969 412.75 188.390625 417.28125 192.339844 C 417.496094 192.003906 417.347656 192.386719 417.5625 191.671875 L 435.054688 85.921875 C 411.332031 89.269531 394.289062 99.398438 379.148438 113.15625 C 376.183594 115.851562 374.066406 118.585938 371.117188 121.816406 C 369.9375 123.117188 368.453125 124.996094 367.453125 126.496094 C 364.539062 130.84375 363.789062 131.59375 360.890625 136.625 C 359.957031 138.222656 358.972656 140.503906 357.992188 141.96875 Z M 460.058594 157.777344 C 460.839844 158.359375 461.523438 159.109375 462.390625 159.777344 C 463.339844 160.507812 464.007812 161.089844 465.074219 161.90625 C 466.054688 162.65625 466.789062 163.074219 467.855469 163.957031 L 478.464844 172.300781 C 479.414062 173.015625 480.183594 173.765625 481.097656 174.464844 C 483.03125 175.949219 484.328125 177.082031 486.296875 178.582031 L 528.691406 211.925781 C 530.507812 213.242188 532.355469 214.773438 534.140625 216.125 L 544.601562 224.351562 C 547.316406 219.003906 549.949219 207.597656 550.832031 200.734375 C 553.628906 179.148438 549.914062 157.792969 539.769531 138.921875 C 537.902344 135.457031 535.9375 132.609375 534.140625 129.476562 Z M 463.589844 287.910156 C 470.71875 287.863281 484.78125 282.964844 490.609375 280.433594 C 499.207031 276.703125 510.582031 269.65625 516.898438 263.710938 C 518.578125 262.128906 519.894531 261.0625 521.410156 259.5625 C 522.976562 258.015625 523.976562 256.75 525.644531 255.132812 C 526.976562 253.832031 528.191406 252.019531 529.40625 250.535156 C 532.855469 246.320312 541.117188 234.460938 542.46875 229.230469 L 482.148438 181.996094 C 481.097656 184.109375 480.199219 192.304688 479.664062 195.320312 L 468.203125 261.527344 C 466.6875 270.171875 465.421875 279.484375 463.605469 287.910156 Z M 471.371094 211.761719 L 368.9375 249.1875 C 372.066406 253.382812 376.617188 258.53125 380.546875 261.863281 C 381.878906 262.976562 383.328125 264.660156 384.777344 265.644531 C 387.59375 267.574219 390.359375 270.15625 394.222656 272.570312 C 405.269531 279.5 415.03125 283.730469 428.523438 286.746094 C 434.652344 288.113281 452.164062 290.128906 458.210938 288.460938 L 471.386719 211.761719 Z M 355.742188 147.21875 C 354.375 149.449219 352.445312 155.746094 351.59375 158.757812 C 344.183594 184.578125 347.3125 211.644531 359.773438 235.113281 L 365.472656 244.671875 C 369.253906 243.671875 379.53125 239.558594 384.230469 237.925781 C 390.441406 235.761719 396.421875 233.480469 402.585938 231.246094 C 408.699219 229.050781 414.832031 226.832031 420.925781 224.550781 C 422.59375 223.933594 437.953125 218.839844 439.183594 217.589844 Z M 355.742188 147.21875 " fill-opacity="1" fill-rule="evenodd"/><path fill="#ffffff" d="M 116.507812 69.449219 L 44.09375 69.449219 C 34.75 69.449219 27.101562 77.09375 27.101562 86.4375 C 27.101562 95.78125 34.75 103.425781 44.09375 103.425781 L 116.507812 103.425781 C 125.855469 103.425781 133.5 95.78125 133.5 86.4375 C 133.5 77.09375 125.855469 69.449219 116.507812 69.449219 Z M 116.507812 69.449219 " fill-opacity="1" fill-rule="evenodd"/><g clip-path="url(#41d76dd7ce)"><path fill="#3454d1" d="M 456.527344 310.132812 C 454.246094 310.265625 451.945312 310.316406 449.628906 310.316406 C 449.414062 310.316406 449.179688 310.316406 448.964844 310.316406 C 448.746094 310.316406 448.53125 310.316406 448.296875 310.316406 C 380.515625 310.316406 325.539062 255.347656 325.539062 187.574219 C 325.539062 119.800781 380.515625 64.835938 448.296875 64.835938 C 448.515625 64.835938 448.730469 64.835938 448.964844 64.835938 C 449.179688 64.835938 449.398438 64.835938 449.628906 64.835938 C 451.945312 64.835938 454.246094 64.902344 456.527344 65.019531 C 521.113281 68.597656 572.386719 122.097656 572.386719 187.574219 C 572.386719 253.035156 521.113281 306.550781 456.527344 310.132812 Z M 552.011719 0.640625 L 452.113281 0.640625 C 451.0625 0.59375 450.03125 0.574219 448.980469 0.574219 C 447.929688 0.558594 446.898438 0.574219 445.847656 0.640625 L 270.132812 0.640625 C 260.789062 0.640625 253.144531 8.289062 253.144531 17.632812 C 253.144531 26.976562 260.789062 34.621094 270.132812 34.621094 L 339.785156 34.621094 C 339.933594 34.621094 340.066406 34.636719 340.21875 34.636719 L 340.234375 34.636719 C 340.515625 34.652344 340.800781 34.671875 341.082031 34.703125 L 341.101562 34.703125 C 341.234375 34.722656 341.382812 34.738281 341.515625 34.753906 C 341.933594 34.804688 342.347656 34.871094 342.765625 34.953125 L 342.78125 34.953125 L 343.183594 35.039062 L 343.582031 35.136719 L 343.980469 35.253906 L 344.363281 35.371094 L 344.398438 35.371094 L 344.78125 35.488281 L 344.816406 35.488281 L 345.066406 35.570312 C 345.382812 35.6875 345.699219 35.804688 346.015625 35.9375 C 352.09375 38.535156 356.375 44.582031 356.375 51.578125 C 356.375 60.921875 348.730469 68.566406 339.382812 68.566406 L 185.726562 68.566406 C 176.378906 68.566406 168.734375 76.210938 168.734375 85.554688 C 168.734375 94.898438 176.378906 102.542969 185.726562 102.542969 L 251.84375 102.542969 L 252.160156 102.5625 L 252.292969 102.5625 L 252.59375 102.578125 L 252.691406 102.578125 L 253.078125 102.613281 L 253.109375 102.613281 L 253.476562 102.644531 L 253.59375 102.660156 L 253.875 102.695312 L 253.992188 102.710938 L 254.34375 102.761719 L 254.375 102.761719 L 254.757812 102.828125 L 254.859375 102.84375 L 255.140625 102.910156 L 255.257812 102.945312 L 255.558594 103.011719 L 255.625 103.027344 L 255.992188 103.128906 L 256.074219 103.144531 L 256.359375 103.226562 L 256.472656 103.261719 L 256.722656 103.34375 L 256.839844 103.378906 L 257.191406 103.496094 L 257.222656 103.511719 L 257.539062 103.628906 L 257.640625 103.660156 L 257.90625 103.761719 L 258.007812 103.8125 L 258.339844 103.960938 L 258.355469 103.960938 L 258.691406 104.128906 L 258.789062 104.175781 L 259.039062 104.292969 L 259.140625 104.34375 L 259.40625 104.492188 L 259.457031 104.527344 L 259.789062 104.710938 L 259.855469 104.742188 L 260.105469 104.894531 L 260.207031 104.945312 L 260.457031 105.09375 L 260.523438 105.144531 L 260.839844 105.34375 L 260.890625 105.375 L 261.140625 105.558594 L 261.238281 105.625 L 261.457031 105.792969 L 261.539062 105.859375 L 261.839844 106.09375 L 262.121094 106.324219 L 262.203125 106.390625 L 262.421875 106.574219 L 262.503906 106.640625 L 262.753906 106.859375 L 262.789062 106.890625 L 263.054688 107.140625 L 263.121094 107.207031 L 263.320312 107.410156 L 263.40625 107.492188 L 263.671875 107.757812 L 263.921875 108.023438 L 263.972656 108.074219 L 264.171875 108.292969 L 264.253906 108.375 L 264.4375 108.589844 L 264.488281 108.65625 L 264.71875 108.957031 L 264.738281 108.972656 L 264.953125 109.242188 L 265.019531 109.339844 L 265.171875 109.539062 L 265.238281 109.640625 L 265.4375 109.921875 L 265.453125 109.957031 L 265.667969 110.273438 L 265.71875 110.339844 L 265.871094 110.589844 L 265.917969 110.691406 L 266.070312 110.957031 L 266.101562 111.007812 L 266.285156 111.339844 L 266.335938 111.421875 L 266.46875 111.671875 L 266.519531 111.773438 L 266.652344 112.023438 L 266.6875 112.105469 L 266.851562 112.4375 L 266.871094 112.488281 L 267.003906 112.789062 L 267.050781 112.886719 L 267.152344 113.15625 L 267.1875 113.253906 L 267.203125 113.320312 C 267.335938 113.636719 267.4375 113.972656 267.550781 114.304688 C 268.070312 115.9375 268.351562 117.652344 268.351562 119.449219 C 268.351562 128.796875 260.707031 136.441406 251.359375 136.441406 L 90.457031 136.441406 C 81.109375 136.441406 73.464844 144.085938 73.464844 153.429688 C 73.464844 162.773438 81.109375 170.417969 90.457031 170.417969 L 215.445312 170.417969 L 215.429688 170.46875 C 215.859375 170.503906 216.277344 170.550781 216.695312 170.601562 C 224.875 171.816406 231.1875 178.914062 231.1875 187.410156 C 231.1875 195.902344 224.875 203 216.695312 204.214844 C 216.277344 204.28125 215.859375 204.332031 215.429688 204.347656 L 215.445312 204.398438 L 125.339844 204.398438 C 115.992188 204.398438 108.347656 212.042969 108.347656 221.386719 C 108.347656 230.730469 115.992188 238.375 125.339844 238.375 L 251.359375 238.375 C 260.707031 238.375 268.351562 246.023438 268.351562 255.367188 C 268.351562 257.164062 268.070312 258.878906 267.550781 260.511719 C 267.453125 260.84375 267.335938 261.164062 267.203125 261.496094 L 267.1875 261.546875 L 267.152344 261.644531 L 267.050781 261.894531 L 267.003906 262.011719 L 266.886719 262.292969 L 266.871094 262.34375 L 266.71875 262.679688 L 266.667969 262.777344 L 266.554688 263.027344 L 266.503906 263.144531 L 266.386719 263.378906 L 266.335938 263.476562 L 266.152344 263.792969 L 266.121094 263.859375 L 265.96875 264.109375 L 265.902344 264.210938 L 265.753906 264.441406 L 265.703125 264.527344 L 265.503906 264.84375 L 265.46875 264.894531 L 265.285156 265.160156 L 265.203125 265.257812 L 265.054688 265.460938 L 264.988281 265.558594 L 264.785156 265.824219 L 264.753906 265.859375 L 264.519531 266.140625 L 264.453125 266.207031 L 264.269531 266.425781 L 264.1875 266.507812 L 264.003906 266.726562 L 263.9375 266.792969 L 263.6875 267.058594 L 263.421875 267.324219 L 263.335938 267.40625 L 263.136719 267.609375 L 263.070312 267.675781 L 262.804688 267.925781 L 262.753906 267.957031 L 262.523438 268.15625 L 262.4375 268.242188 L 262.238281 268.40625 L 262.136719 268.492188 L 261.871094 268.707031 L 261.855469 268.722656 L 261.570312 268.941406 L 261.488281 269.007812 L 261.273438 269.171875 L 261.171875 269.242188 L 260.921875 269.421875 L 260.871094 269.457031 L 260.554688 269.65625 L 260.488281 269.707031 L 260.238281 269.855469 L 260.140625 269.90625 L 259.890625 270.054688 L 259.824219 270.089844 L 259.488281 270.273438 L 259.441406 270.304688 L 259.171875 270.457031 L 259.074219 270.507812 L 258.824219 270.621094 L 258.722656 270.671875 L 258.390625 270.839844 L 258.375 270.855469 L 258.039062 271.007812 L 257.941406 271.054688 L 257.675781 271.15625 L 257.574219 271.1875 L 257.257812 271.304688 L 257.222656 271.324219 L 256.875 271.4375 L 256.757812 271.472656 L 256.507812 271.554688 L 256.390625 271.589844 L 256.109375 271.671875 L 256.023438 271.6875 L 255.660156 271.789062 L 255.589844 271.804688 L 255.292969 271.871094 L 255.175781 271.90625 L 255.109375 271.921875 C 254.175781 272.121094 253.257812 272.253906 252.359375 272.304688 L 252.261719 272.304688 L 252.042969 272.320312 L 185.824219 272.320312 C 176.480469 272.320312 168.835938 279.96875 168.835938 289.3125 C 168.835938 298.65625 176.480469 306.300781 185.824219 306.300781 L 339.484375 306.300781 C 348.828125 306.300781 356.476562 313.945312 356.476562 323.289062 C 356.476562 330.285156 352.195312 336.332031 346.113281 338.929688 C 345.796875 339.0625 345.480469 339.195312 345.164062 339.296875 L 346.148438 340.277344 L 270.25 340.277344 C 260.90625 340.277344 253.257812 347.925781 253.257812 357.269531 C 253.257812 366.613281 260.90625 374.257812 270.25 374.257812 L 445.980469 374.257812 L 445.898438 374.257812 C 446.964844 374.308594 448.03125 374.339844 449.097656 374.324219 C 450.164062 374.339844 451.230469 374.324219 452.296875 374.257812 L 452.210938 374.257812 L 578.816406 374.257812 C 635.488281 374.257812 681.851562 327.902344 681.851562 271.238281 L 681.851562 103.359375 C 681.851562 46.695312 635.488281 0.34375 578.816406 0.34375 L 552.113281 0.34375 Z M 552.011719 0.640625 " fill-opacity="1" fill-rule="evenodd"/></g><path fill="#ffffff" d="M 76.445312 204.480469 L 40.230469 204.480469 C 30.886719 204.480469 23.238281 212.125 23.238281 221.46875 C 23.238281 230.816406 30.886719 238.460938 40.230469 238.460938 L 76.445312 238.460938 C 85.792969 238.460938 93.4375 230.816406 93.4375 221.46875 C 93.4375 212.125 85.792969 204.480469 76.445312 204.480469 Z M 76.445312 204.480469 " fill-opacity="1" fill-rule="evenodd"/><path fill="#ffffff" d="M 216.660156 340.144531 L 82.242188 340.144531 C 72.898438 340.144531 65.25 347.792969 65.25 357.136719 C 65.25 366.480469 72.898438 374.125 82.242188 374.125 L 216.660156 374.125 C 226.007812 374.125 233.652344 366.480469 233.652344 357.136719 C 233.652344 347.792969 226.007812 340.144531 216.660156 340.144531 Z M 216.660156 340.144531 " fill-opacity="1" fill-rule="evenodd"/><path fill="#ffffff" d="M 212.796875 0.410156 L 192.738281 0.410156 C 183.394531 0.410156 175.746094 8.054688 175.746094 17.398438 C 175.746094 26.742188 183.394531 34.386719 192.738281 34.386719 L 212.796875 34.386719 C 222.140625 34.386719 229.789062 26.742188 229.789062 17.398438 C 229.789062 8.054688 222.140625 0.410156 212.796875 0.410156 Z M 212.796875 0.410156 " fill-opacity="1" fill-rule="evenodd"/><path fill="#ffffff" d="M 117.808594 272.703125 L 97.753906 272.703125 C 88.40625 272.703125 80.761719 280.351562 80.761719 289.695312 C 80.761719 299.039062 88.40625 306.683594 97.753906 306.683594 L 117.808594 306.683594 C 127.15625 306.683594 134.800781 299.039062 134.800781 289.695312 C 134.800781 280.351562 127.15625 272.703125 117.808594 272.703125 Z M 117.808594 272.703125 " fill-opacity="1" fill-rule="evenodd"/><path fill="#ffffff" d="M 37.046875 136.722656 L 16.992188 136.722656 C 7.644531 136.722656 0 144.367188 0 153.710938 C 0 163.058594 7.644531 170.703125 16.992188 170.703125 L 37.046875 170.703125 C 46.394531 170.703125 54.039062 163.058594 54.039062 153.710938 C 54.039062 144.367188 46.394531 136.722656 37.046875 136.722656 Z M 37.046875 136.722656 " fill-opacity="1" fill-rule="evenodd"/><g fill="#ffffff" fill-opacity="1"><g transform="translate(746.549676, 296.011474)"><g><path d="M 123.25 2.1875 C 102.601562 2.1875 83.625 -2.660156 66.3125 -12.359375 C 49.007812 -22.054688 35.300781 -35.503906 25.1875 -52.703125 C 15.070312 -69.910156 10.015625 -89.359375 10.015625 -111.046875 C 10.015625 -132.734375 15.070312 -152.175781 25.1875 -169.375 C 35.300781 -186.582031 49.007812 -199.984375 66.3125 -209.578125 C 83.625 -219.171875 102.601562 -223.96875 123.25 -223.96875 C 144.101562 -223.96875 163.128906 -219.171875 180.328125 -209.578125 C 197.535156 -199.984375 211.144531 -186.582031 221.15625 -169.375 C 231.164062 -152.175781 236.171875 -132.734375 236.171875 -111.046875 C 236.171875 -89.359375 231.164062 -69.910156 221.15625 -52.703125 C 211.144531 -35.503906 197.484375 -22.054688 180.171875 -12.359375 C 162.867188 -2.660156 143.894531 2.1875 123.25 2.1875 Z M 123.25 -54.75 C 138.882812 -54.75 151.238281 -59.851562 160.3125 -70.0625 C 169.382812 -80.28125 173.921875 -93.941406 173.921875 -111.046875 C 173.921875 -128.566406 169.382812 -142.382812 160.3125 -152.5 C 151.238281 -162.613281 138.882812 -167.671875 123.25 -167.671875 C 107.394531 -167.671875 94.984375 -162.613281 86.015625 -152.5 C 77.054688 -142.382812 72.578125 -128.566406 72.578125 -111.046875 C 72.578125 -93.734375 77.054688 -80.019531 86.015625 -69.90625 C 94.984375 -59.800781 107.394531 -54.75 123.25 -54.75 Z M 123.25 -54.75 "/></g></g></g><g fill="#ffffff" fill-opacity="1"><g transform="translate(992.73711, 296.011474)"><g><path d="M 132.3125 -177.046875 C 152.539062 -177.046875 168.597656 -170.320312 180.484375 -156.875 C 192.378906 -143.425781 198.328125 -125.234375 198.328125 -102.296875 L 198.328125 0 L 137.015625 0 L 137.015625 -94.15625 C 137.015625 -104.164062 134.40625 -112.035156 129.1875 -117.765625 C 123.976562 -123.503906 116.992188 -126.375 108.234375 -126.375 C 99.054688 -126.375 91.859375 -123.503906 86.640625 -117.765625 C 81.429688 -112.035156 78.828125 -104.164062 78.828125 -94.15625 L 78.828125 0 L 17.515625 0 L 17.515625 -175.484375 L 78.828125 -175.484375 L 78.828125 -150.46875 C 84.253906 -158.382812 91.550781 -164.789062 100.71875 -169.6875 C 109.894531 -174.59375 120.425781 -177.046875 132.3125 -177.046875 Z M 132.3125 -177.046875 "/></g></g></g><g fill="#ffffff" fill-opacity="1"><g transform="translate(1207.329976, 296.011474)"><g><path d="M 197.078125 -175.484375 L 197.078125 0 L 135.453125 0 L 135.453125 -25.03125 C 130.234375 -17.101562 123.035156 -10.6875 113.859375 -5.78125 C 104.679688 -0.882812 94.148438 1.5625 82.265625 1.5625 C 61.828125 1.5625 45.71875 -5.160156 33.9375 -18.609375 C 22.15625 -32.054688 16.265625 -50.359375 16.265625 -73.515625 L 16.265625 -175.484375 L 77.265625 -175.484375 L 77.265625 -81.328125 C 77.265625 -71.316406 79.921875 -63.441406 85.234375 -57.703125 C 90.554688 -51.972656 97.597656 -49.109375 106.359375 -49.109375 C 115.328125 -49.109375 122.414062 -51.972656 127.625 -57.703125 C 132.84375 -63.441406 135.453125 -71.316406 135.453125 -81.328125 L 135.453125 -175.484375 Z M 197.078125 -175.484375 "/></g></g></g></svg>