<svg xmlns="http://www.w3.org/2000/svg" xmlns:xlink="http://www.w3.org/1999/xlink" width="500" zoomAndPan="magnify" viewBox="0 0 375 187.499995" height="250" preserveAspectRatio="xMidYMid meet" version="1.0"><defs><clipPath id="66ed606a51"><path d="M 54 0 L 357.132812 0 L 357.132812 187 L 54 187 Z M 54 0 " clip-rule="nonzero"/></clipPath><clipPath id="9934fb7831"><path d="M 17.535156 68 L 45 68 L 45 86 L 17.535156 86 Z M 17.535156 68 " clip-rule="nonzero"/></clipPath></defs><path fill="#000000" d="M 236.984375 42.554688 L 230.453125 81.917969 C 232.644531 81.285156 234.859375 80.316406 237.027344 79.566406 C 242.800781 77.566406 250.238281 74.476562 256.226562 72.226562 C 260.46875 70.628906 264.867188 68.9375 269.054688 67.300781 C 270.78125 66.625 281.195312 62.773438 281.859375 62.324219 C 281.230469 60.855469 275.363281 55.03125 273.992188 54.019531 C 273.246094 53.46875 272.566406 52.820312 271.746094 52.265625 C 270.921875 51.710938 270.191406 51.175781 269.289062 50.5625 C 264.582031 47.339844 257.796875 44.582031 251.980469 43.402344 C 247.886719 42.574219 241.199219 41.851562 236.984375 42.554688 Z M 195.851562 70.789062 C 196.480469 71.585938 203.511719 77.300781 204.953125 78.613281 C 208.613281 81.941406 214.148438 86.1875 217.933594 89.632812 C 220.015625 91.527344 223.136719 93.945312 225.390625 95.914062 C 225.5 95.746094 225.425781 95.9375 225.535156 95.582031 L 234.246094 42.847656 C 222.429688 44.515625 213.941406 49.566406 206.398438 56.425781 C 204.921875 57.773438 203.867188 59.132812 202.398438 60.746094 C 201.808594 61.394531 201.070312 62.332031 200.574219 63.078125 C 199.121094 65.246094 198.746094 65.621094 197.304688 68.128906 C 196.839844 68.925781 196.347656 70.066406 195.859375 70.796875 Z M 246.703125 78.679688 C 247.089844 78.96875 247.433594 79.34375 247.863281 79.675781 C 248.335938 80.039062 248.667969 80.332031 249.199219 80.738281 C 249.6875 81.113281 250.054688 81.320312 250.585938 81.761719 L 255.871094 85.921875 C 256.34375 86.277344 256.726562 86.652344 257.183594 87 C 258.144531 87.742188 258.792969 88.304688 259.769531 89.054688 L 280.890625 105.679688 C 281.792969 106.335938 282.714844 107.101562 283.601562 107.773438 L 288.8125 111.878906 C 290.167969 109.210938 291.476562 103.523438 291.917969 100.101562 C 293.3125 89.335938 291.460938 78.6875 286.40625 69.277344 C 285.476562 67.546875 284.5 66.128906 283.601562 64.566406 Z M 248.460938 143.574219 C 252.011719 143.546875 259.015625 141.105469 261.921875 139.84375 C 266.203125 137.984375 271.871094 134.46875 275.015625 131.503906 C 275.851562 130.714844 276.507812 130.183594 277.261719 129.4375 C 278.042969 128.664062 278.539062 128.03125 279.371094 127.226562 C 280.035156 126.578125 280.640625 125.671875 281.246094 124.933594 C 282.964844 122.832031 287.078125 116.917969 287.75 114.3125 L 257.703125 90.753906 C 257.183594 91.808594 256.734375 95.898438 256.46875 97.398438 L 250.757812 130.417969 C 250.003906 134.726562 249.375 139.371094 248.46875 143.574219 Z M 252.335938 105.597656 L 201.3125 124.261719 C 202.871094 126.355469 205.136719 128.921875 207.09375 130.582031 C 207.757812 131.140625 208.480469 131.976562 209.203125 132.46875 C 210.605469 133.429688 211.984375 134.71875 213.90625 135.921875 C 219.410156 139.378906 224.273438 141.488281 230.992188 142.992188 C 234.046875 143.671875 242.769531 144.679688 245.78125 143.847656 L 252.34375 105.597656 Z M 194.738281 73.414062 C 194.058594 74.527344 193.097656 77.664062 192.671875 79.167969 C 188.980469 92.042969 190.539062 105.539062 196.746094 117.242188 L 199.585938 122.011719 C 201.46875 121.511719 206.589844 119.460938 208.929688 118.648438 C 212.023438 117.566406 215.003906 116.429688 218.074219 115.316406 C 221.117188 114.21875 224.171875 113.113281 227.210938 111.976562 C 228.039062 111.671875 235.691406 109.128906 236.304688 108.503906 Z M 194.738281 73.414062 " fill-opacity="1" fill-rule="evenodd"/><path fill="#000000" d="M 75.574219 34.632812 L 39.5 34.632812 C 34.847656 34.632812 31.039062 38.445312 31.039062 43.105469 C 31.039062 47.765625 34.847656 51.578125 39.5 51.578125 L 75.574219 51.578125 C 80.226562 51.578125 84.035156 47.765625 84.035156 43.105469 C 84.035156 38.445312 80.226562 34.632812 75.574219 34.632812 Z M 75.574219 34.632812 " fill-opacity="1" fill-rule="evenodd"/><g clip-path="url(#66ed606a51)"><path fill="#3454d1" d="M 244.941406 154.652344 C 243.804688 154.71875 242.660156 154.746094 241.507812 154.746094 C 241.398438 154.746094 241.28125 154.746094 241.175781 154.746094 C 241.066406 154.746094 240.960938 154.746094 240.84375 154.746094 C 207.078125 154.746094 179.695312 127.335938 179.695312 93.539062 C 179.695312 59.742188 207.078125 32.332031 240.84375 32.332031 C 240.949219 32.332031 241.058594 32.332031 241.175781 32.332031 C 241.28125 32.332031 241.390625 32.332031 241.507812 32.332031 C 242.660156 32.332031 243.804688 32.363281 244.941406 32.421875 C 277.113281 34.207031 302.65625 60.886719 302.65625 93.539062 C 302.65625 126.179688 277.113281 152.867188 244.941406 154.652344 Z M 292.507812 0.320312 L 242.742188 0.320312 C 242.21875 0.296875 241.707031 0.285156 241.183594 0.285156 C 240.660156 0.277344 240.144531 0.285156 239.625 0.320312 L 152.097656 0.320312 C 147.441406 0.320312 143.632812 4.132812 143.632812 8.792969 C 143.632812 13.453125 147.441406 17.265625 152.097656 17.265625 L 186.789062 17.265625 C 186.863281 17.265625 186.929688 17.273438 187.007812 17.273438 L 187.015625 17.273438 C 187.15625 17.28125 187.296875 17.289062 187.4375 17.304688 L 187.445312 17.304688 C 187.511719 17.3125 187.585938 17.324219 187.652344 17.332031 C 187.859375 17.355469 188.066406 17.390625 188.277344 17.429688 L 188.285156 17.429688 L 188.484375 17.472656 L 188.683594 17.523438 L 188.882812 17.578125 L 189.070312 17.636719 L 189.089844 17.636719 L 189.28125 17.695312 L 189.296875 17.695312 L 189.421875 17.738281 C 189.578125 17.796875 189.734375 17.855469 189.894531 17.921875 C 192.921875 19.214844 195.054688 22.230469 195.054688 25.71875 C 195.054688 30.378906 191.246094 34.191406 186.589844 34.191406 L 110.050781 34.191406 C 105.394531 34.191406 101.585938 38.003906 101.585938 42.664062 C 101.585938 47.324219 105.394531 51.136719 110.050781 51.136719 L 142.984375 51.136719 L 143.144531 51.144531 L 143.210938 51.144531 L 143.359375 51.152344 L 143.410156 51.152344 L 143.597656 51.167969 L 143.617188 51.167969 L 143.796875 51.1875 L 143.855469 51.195312 L 143.996094 51.210938 L 144.230469 51.242188 L 144.246094 51.242188 L 144.4375 51.277344 L 144.488281 51.285156 L 144.628906 51.320312 L 144.6875 51.335938 L 144.835938 51.367188 L 144.867188 51.375 L 145.050781 51.425781 L 145.09375 51.433594 L 145.234375 51.476562 L 145.292969 51.492188 L 145.417969 51.535156 L 145.476562 51.550781 L 145.648438 51.609375 L 145.664062 51.617188 L 145.824219 51.675781 L 145.871094 51.691406 L 146.003906 51.742188 L 146.054688 51.765625 L 146.222656 51.84375 L 146.230469 51.84375 L 146.394531 51.925781 L 146.445312 51.949219 L 146.570312 52.007812 L 146.621094 52.03125 L 146.753906 52.109375 L 146.777344 52.125 L 146.945312 52.214844 L 146.976562 52.234375 L 147.101562 52.308594 L 147.152344 52.332031 L 147.273438 52.40625 L 147.308594 52.433594 L 147.464844 52.53125 L 147.492188 52.546875 L 147.617188 52.640625 L 147.664062 52.671875 L 147.773438 52.753906 L 147.816406 52.789062 L 147.964844 52.90625 L 148.105469 53.023438 L 148.148438 53.054688 L 148.253906 53.144531 L 148.296875 53.179688 L 148.421875 53.289062 L 148.4375 53.304688 L 148.570312 53.429688 L 148.875 53.734375 L 149 53.867188 L 149.027344 53.894531 L 149.125 54 L 149.167969 54.042969 L 149.257812 54.152344 L 149.285156 54.183594 L 149.398438 54.332031 L 149.40625 54.34375 L 149.515625 54.476562 L 149.550781 54.523438 L 149.625 54.625 L 149.65625 54.675781 L 149.757812 54.816406 L 149.765625 54.832031 L 149.871094 54.988281 L 149.898438 55.023438 L 149.972656 55.148438 L 149.996094 55.199219 L 150.070312 55.332031 L 150.089844 55.355469 L 150.179688 55.523438 L 150.203125 55.5625 L 150.269531 55.6875 L 150.296875 55.738281 L 150.363281 55.863281 L 150.378906 55.902344 L 150.460938 56.070312 L 150.46875 56.09375 L 150.535156 56.246094 L 150.5625 56.292969 L 150.609375 56.425781 L 150.628906 56.476562 L 150.636719 56.511719 C 150.703125 56.667969 150.753906 56.832031 150.808594 57 C 151.066406 57.8125 151.207031 58.667969 151.207031 59.566406 C 151.207031 64.226562 147.398438 68.039062 142.746094 68.039062 L 62.59375 68.039062 C 57.9375 68.039062 54.128906 71.851562 54.128906 76.511719 C 54.128906 81.171875 57.9375 84.984375 62.59375 84.984375 L 124.855469 84.984375 L 124.847656 85.007812 C 125.0625 85.023438 125.269531 85.050781 125.476562 85.074219 C 129.550781 85.679688 132.695312 89.21875 132.695312 93.453125 C 132.695312 97.691406 129.550781 101.230469 125.476562 101.835938 C 125.269531 101.867188 125.0625 101.894531 124.847656 101.902344 L 124.855469 101.925781 L 79.96875 101.925781 C 75.316406 101.925781 71.507812 105.738281 71.507812 110.398438 C 71.507812 115.058594 75.316406 118.871094 79.96875 118.871094 L 142.746094 118.871094 C 147.398438 118.871094 151.207031 122.683594 151.207031 127.34375 C 151.207031 128.242188 151.066406 129.097656 150.808594 129.910156 C 150.761719 130.074219 150.703125 130.234375 150.636719 130.398438 L 150.628906 130.425781 L 150.609375 130.476562 L 150.5625 130.597656 L 150.535156 130.65625 L 150.476562 130.796875 L 150.46875 130.824219 L 150.394531 130.988281 L 150.371094 131.039062 L 150.3125 131.164062 L 150.289062 131.222656 L 150.230469 131.339844 L 150.203125 131.386719 L 150.113281 131.546875 L 150.097656 131.578125 L 150.023438 131.703125 L 149.988281 131.753906 L 149.914062 131.871094 L 149.890625 131.910156 L 149.789062 132.070312 L 149.773438 132.09375 L 149.679688 132.226562 L 149.640625 132.277344 L 149.566406 132.375 L 149.53125 132.425781 L 149.433594 132.558594 L 149.417969 132.574219 L 149.300781 132.71875 L 149.265625 132.75 L 149.175781 132.859375 L 149.132812 132.898438 L 149.042969 133.007812 L 149.007812 133.042969 L 148.886719 133.175781 L 148.851562 133.207031 L 148.753906 133.308594 L 148.710938 133.347656 L 148.578125 133.480469 L 148.445312 133.605469 L 148.421875 133.621094 L 148.304688 133.722656 L 148.261719 133.765625 L 148.164062 133.847656 L 148.113281 133.886719 L 147.980469 133.996094 L 147.972656 134.003906 L 147.832031 134.113281 L 147.789062 134.144531 L 147.683594 134.230469 L 147.632812 134.261719 L 147.507812 134.351562 L 147.484375 134.371094 L 147.324219 134.46875 L 147.292969 134.496094 L 147.167969 134.570312 L 147.117188 134.59375 L 146.992188 134.667969 L 146.960938 134.6875 L 146.792969 134.777344 L 146.769531 134.792969 L 146.636719 134.867188 L 146.585938 134.894531 L 146.460938 134.953125 L 146.414062 134.976562 L 146.246094 135.058594 L 146.238281 135.066406 L 146.070312 135.140625 L 146.023438 135.167969 L 145.890625 135.21875 L 145.839844 135.234375 L 145.683594 135.292969 L 145.664062 135.300781 L 145.492188 135.359375 L 145.433594 135.375 L 145.308594 135.417969 L 145.25 135.433594 L 145.109375 135.476562 L 145.066406 135.484375 L 144.886719 135.53125 L 144.851562 135.542969 L 144.703125 135.574219 L 144.644531 135.589844 L 144.613281 135.597656 C 144.148438 135.699219 143.691406 135.765625 143.242188 135.789062 L 143.191406 135.789062 L 143.085938 135.796875 L 110.101562 135.796875 C 105.445312 135.796875 101.636719 139.609375 101.636719 144.269531 C 101.636719 148.929688 105.445312 152.742188 110.101562 152.742188 L 186.640625 152.742188 C 191.296875 152.742188 195.105469 156.554688 195.105469 161.214844 C 195.105469 164.703125 192.972656 167.71875 189.945312 169.015625 C 189.785156 169.082031 189.628906 169.148438 189.46875 169.195312 L 189.960938 169.6875 L 152.15625 169.6875 C 147.5 169.6875 143.691406 173.5 143.691406 178.160156 C 143.691406 182.820312 147.5 186.632812 152.15625 186.632812 L 239.691406 186.632812 L 239.648438 186.632812 C 240.179688 186.65625 240.710938 186.671875 241.242188 186.664062 C 241.773438 186.671875 242.304688 186.664062 242.835938 186.632812 L 242.792969 186.632812 L 305.859375 186.632812 C 334.085938 186.632812 357.179688 163.515625 357.179688 135.257812 L 357.179688 51.542969 C 357.179688 23.285156 334.085938 0.171875 305.859375 0.171875 L 292.554688 0.171875 Z M 292.507812 0.320312 " fill-opacity="1" fill-rule="evenodd"/></g><path fill="#000000" d="M 55.617188 101.96875 L 37.574219 101.96875 C 32.921875 101.96875 29.113281 105.78125 29.113281 110.441406 C 29.113281 115.101562 32.921875 118.914062 37.574219 118.914062 L 55.617188 118.914062 C 60.269531 118.914062 64.078125 115.101562 64.078125 110.441406 C 64.078125 105.78125 60.269531 101.96875 55.617188 101.96875 Z M 55.617188 101.96875 " fill-opacity="1" fill-rule="evenodd"/><path fill="#000000" d="M 125.460938 169.621094 L 58.503906 169.621094 C 53.847656 169.621094 50.039062 173.433594 50.039062 178.09375 C 50.039062 182.753906 53.847656 186.566406 58.503906 186.566406 L 125.460938 186.566406 C 130.113281 186.566406 133.925781 182.753906 133.925781 178.09375 C 133.925781 173.433594 130.113281 169.621094 125.460938 169.621094 Z M 125.460938 169.621094 " fill-opacity="1" fill-rule="evenodd"/><path fill="#000000" d="M 123.535156 0.203125 L 113.542969 0.203125 C 108.890625 0.203125 105.082031 4.015625 105.082031 8.675781 C 105.082031 13.335938 108.890625 17.148438 113.542969 17.148438 L 123.535156 17.148438 C 128.191406 17.148438 132 13.335938 132 8.675781 C 132 4.015625 128.191406 0.203125 123.535156 0.203125 Z M 123.535156 0.203125 " fill-opacity="1" fill-rule="evenodd"/><path fill="#000000" d="M 76.21875 135.988281 L 66.230469 135.988281 C 61.574219 135.988281 57.765625 139.800781 57.765625 144.460938 C 57.765625 149.121094 61.574219 152.933594 66.230469 152.933594 L 76.21875 152.933594 C 80.875 152.933594 84.683594 149.121094 84.683594 144.460938 C 84.683594 139.800781 80.875 135.988281 76.21875 135.988281 Z M 76.21875 135.988281 " fill-opacity="1" fill-rule="evenodd"/><g clip-path="url(#9934fb7831)"><path fill="#000000" d="M 35.992188 68.179688 L 26 68.179688 C 21.34375 68.179688 17.535156 71.992188 17.535156 76.652344 C 17.535156 81.3125 21.34375 85.125 26 85.125 L 35.992188 85.125 C 40.644531 85.125 44.457031 81.3125 44.457031 76.652344 C 44.457031 71.992188 40.644531 68.179688 35.992188 68.179688 Z M 35.992188 68.179688 " fill-opacity="1" fill-rule="evenodd"/></g></svg>